name C:/MyDriveSym/Projects/mobilecap/Data\Session20210830_0002\mocap\ForceDataProcessed\walking3_forces.mot
datacolumns 19
datarows 19
range 1.02700000 1.03600000
endheader 
time	R_ground_force_vx	R_ground_force_vy	R_ground_force_vz	R_ground_force_px	R_ground_force_py	R_ground_force_pz	R_ground_torque_x	R_ground_torque_y	R_ground_torque_z	L_ground_force_vx	L_ground_force_vy	L_ground_force_vz	L_ground_force_px	L_ground_force_py	L_ground_force_pz	L_ground_torque_x	L_ground_torque_y	L_ground_torque_z	
          1.02700000	          0.00000000	          0.00000000	          0.00000000	          1.18453500	          0.00000000	         -0.17302200	          0.00000000	          0.00000000	          0.00000000	         -3.43468300	        738.56421200	         21.87460300	          1.00645200	          0.00600000	         -0.25930600	          0.00000000	          5.70614200	          0.00000000	
          1.02750000	          0.00000000	          0.00000000	          0.00000000	          1.18601600	          0.00000000	         -0.17300100	          0.00000000	          0.00000000	          0.00000000	         -3.21427500	        739.53297700	         21.99875800	          1.00672200	          0.00600000	         -0.25933300	          0.00000000	          5.70610500	          0.00000000	
          1.02800000	          0.00000000	          0.00000000	          0.00000000	          1.18749700	          0.00000000	         -0.17298000	          0.00000000	          0.00000000	          0.00000000	         -2.99275300	        740.50008700	         22.12262200	          1.00699200	          0.00600000	         -0.25936000	          0.00000000	          5.70589200	          0.00000000	
          1.02850000	          0.00000000	          0.00000000	          0.00000000	          1.18897900	          0.00000000	         -0.17295900	          0.00000000	          0.00000000	          0.00000000	         -2.77010800	        741.46545900	         22.24617700	          1.00726200	          0.00600000	         -0.25938800	          0.00000000	          5.70550500	          0.00000000	
          1.02900000	          0.00000000	          0.00000000	          0.00000000	          1.19046000	          0.00000000	         -0.17293800	          0.00000000	          0.00000000	          0.00000000	         -2.54633400	        742.42900900	         22.36940400	          1.00753200	          0.00600000	         -0.25941500	          0.00000000	          5.70494200	          0.00000000	
          1.02950000	          0.00000000	          0.00000000	          0.00000000	          1.19194100	          0.00000000	         -0.17291700	          0.00000000	          0.00000000	          0.00000000	         -2.32142500	        743.39065200	         22.49228500	          1.00780100	          0.00600000	         -0.25944200	          0.00000000	          5.70420500	          0.00000000	
          1.03000000	          0.00000000	          0.00000000	          0.00000000	          1.19342200	          0.00000000	         -0.17289600	          0.00000000	          0.00000000	          0.00000000	         -2.09537200	        744.35030500	         22.61480200	          1.00807000	          0.00600000	         -0.25946900	          0.00000000	          5.70329300	          0.00000000	
          1.03050000	          0.00000000	          0.00000000	          0.00000000	          1.19490300	          0.00000000	         -0.17287500	          0.00000000	          0.00000000	          0.00000000	         -1.86817000	        745.30788300	         22.73693700	          1.00834000	          0.00600000	         -0.25949600	          0.00000000	          5.70220700	          0.00000000	
          1.03100000	          0.00000000	          0.00000000	          0.00000000	          1.19638500	          0.00000000	         -0.17285400	          0.00000000	          0.00000000	          0.00000000	         -1.63981100	        746.26330200	         22.85867000	          1.00860900	          0.00600000	         -0.25952200	          0.00000000	          5.70094700	          0.00000000	
          1.03150000	          0.00000000	          0.00000000	          0.00000000	          1.19786600	          0.00000000	         -0.17283300	          0.00000000	          0.00000000	          0.00000000	         -1.41029000	        747.21647700	         22.97998400	          1.00887700	          0.00600000	         -0.25954900	          0.00000000	          5.69951400	          0.00000000	
          1.03200000	          0.00000000	          0.00000000	          0.00000000	          1.19934700	          0.00000000	         -0.17281200	          0.00000000	          0.00000000	          0.00000000	         -1.17960100	        748.16732400	         23.10086000	          1.00914600	          0.00600000	         -0.25957600	          0.00000000	          5.69790700	          0.00000000	
          1.03250000	          0.00000000	          0.00000000	          0.00000000	          1.20082800	          0.00000000	         -0.17279100	          0.00000000	          0.00000000	          0.00000000	         -0.94773700	        749.11575900	         23.22127900	          1.00941500	          0.00600000	         -0.25960200	          0.00000000	          5.69612800	          0.00000000	
          1.03300000	          0.00000000	          0.00000000	          0.00000000	          1.20231000	          0.00000000	         -0.17277000	          0.00000000	          0.00000000	          0.00000000	         -0.71469100	        750.06169700	         23.34122300	          1.00968300	          0.00600000	         -0.25962800	          0.00000000	          5.69417700	          0.00000000	
          1.03350000	          0.00000000	          0.00000000	          0.00000000	          1.20379100	          0.00000000	         -0.17274900	          0.00000000	          0.00000000	          0.00000000	         -0.48045900	        751.00505300	         23.46067300	          1.00995100	          0.00600000	         -0.25965400	          0.00000000	          5.69205500	          0.00000000	
          1.03400000	          0.00000000	          0.00000000	          0.00000000	          1.20527200	          0.00000000	         -0.17272800	          0.00000000	          0.00000000	          0.00000000	         -0.24503500	        751.94574400	         23.57960900	          1.01021900	          0.00600000	         -0.25968000	          0.00000000	          5.68976100	          0.00000000	
          1.03450000	          0.00000000	          0.00000000	          0.00000000	          1.20675300	          0.00000000	         -0.17270700	          0.00000000	          0.00000000	          0.00000000	         -0.00841400	        752.88368300	         23.69801400	          1.01048700	          0.00600000	         -0.25970600	          0.00000000	          5.68729600	          0.00000000	
          1.03500000	          0.00000000	          0.00000000	          0.00000000	          1.20823500	          0.00000000	         -0.17268600	          0.00000000	          0.00000000	          0.00000000	          0.22941100	        753.81878700	         23.81586900	          1.01075400	          0.00600000	         -0.25973200	          0.00000000	          5.68466100	          0.00000000	
          1.03550000	          0.00000000	          0.00000000	          0.00000000	          1.20971600	          0.00000000	         -0.17266500	          0.00000000	          0.00000000	          0.00000000	          0.46844500	        754.75097000	         23.93315400	          1.01102200	          0.00600000	         -0.25975700	          0.00000000	          5.68185700	          0.00000000	
          1.03600000	          0.00000000	          0.00000000	          0.00000000	          1.21119700	          0.00000000	         -0.17264400	          0.00000000	          0.00000000	          0.00000000	          0.70869100	        755.68014800	         24.04985200	          1.01128900	          0.00600000	         -0.25978200	          0.00000000	          5.67888500	          0.00000000	
